<?xml version="1.0" encoding="utf-8"?>
<!-- Generator: Adobe Illustrator 24.2.0, SVG Export Plug-In . SVG Version: 6.00 Build 0)  -->
<svg version="1.1" id="Layer_1" xmlns="http://www.w3.org/2000/svg" xmlns:xlink="http://www.w3.org/1999/xlink" x="0px" y="0px"
	 viewBox="0 0 1000 1000" style="enable-background:new 0 0 1000 1000;" xml:space="preserve">
<style type="text/css">
	.st0{fill:#010101;}
	.st1{fill:#FFFFFF;}
</style>
<g>
	<rect x="266.2" y="598.2" class="st0" width="489.5" height="262.5"/>
	<rect x="265.7" y="139.2" class="st0" width="490" height="6.7"/>
	<rect x="265.7" y="139.2" class="st0" width="7.2" height="463.5"/>
	<rect x="749.3" y="139.2" class="st0" width="7.2" height="463.5"/>
	<rect x="273" y="145.9" class="st1" width="475.5" height="452.1"/>
	<circle class="st0" cx="305.2" cy="565.3" r="21.6"/>
	<path class="st0" d="M374.6,599.3c0,0,49.6-21.9,73.9-59.5c24.3-37.6,31.3-55,35.8-90.1c2.8-22-9.2-37.3-9.2-37.3
		s52.7-44.6,10.6-90.3c0,0,26.8,46.3-22,82.8l-17.6,13.7c0,0-16.2,27.3-8.4,44.6c7.8,17.3,11.4,20.3-5,38.7
		c-16.4,18.4-27.9,15.9-27.9,15.9s9.2-16.7,3.9-39c0,0-16.4,3.1-27,35.1l-3.6,3.1l-32.6-20.1l0.8-19l-9.5-16.4
		c0,0,18.7-59.1,24.2-117.1l-9.2-24.8l42.9-44.3c0,0-55.9-1.4-91.7,4.3c-0.4,0.1-0.8,0.1-1.1,0.2c0,0,33.7-32.3,123.2-44
		c0,0-24-17-84.2-31.5c0,0,69.1-15.9,159.7,13.9c0,0,7.5-2.2-46.3-46.8c0,0,73.6,11.1,113.4,55.2c0,0,5.9-11.1-9.5-50.4
		c0,0,49.9,25.9,61.3,83.1c0,0,5.6,1.4,8.4-49.9c0,0,32.9,30.1,29.5,97.5c0,0,15.3-19.8,19.2-41c0,0,23.7,45.7,2.5,101.7
		c0,0,8.4-1.4,25.1-32.6c0,0,8.9,64.7-14.2,104c0,0,9.8-1.7,29.5-34.3c0,0-1.7,78.9-29,115.4c0,0,11.1-5.9,29.5-32.6
		c0,0-5.6,68-19.8,96.7l-67.2,0.3c0,0,53.8-179.2-55.5-280.4c0,0,100.3,125.7,29.5,300.7L374.6,599.3z"/>
	<path class="st1" d="M359.8,466.4c0,0,5,12.7,15,5.4c7.7-5.7-0.9-17.1-0.9-17.1s15.8,4,7.1,19.3c0,0-7.4,9.7-17.5,1.4
		C363.4,475.4,358.9,471.7,359.8,466.4z"/>
	<path class="st1" d="M384.7,346.4l25.4-23.9c0,0,5.9-1.8,4.9,7c0,0-10.4,20.5-12.8,22.9c-2.4,2.3-6.8,2.6-11.6-0.4
		C385.7,349,384.7,346.4,384.7,346.4z"/>
	<path class="st1" d="M323.1,565.5c0,9.9-8,17.9-17.9,17.9c-9.9,0-17.9-8-17.9-17.9s8-17.9,17.9-17.9
		C315,547.5,323.1,555.6,323.1,565.5z"/>
	<rect x="297" y="552.9" class="st0" width="3.7" height="24.5"/>
	<rect x="297" y="552.9" class="st0" width="11.7" height="3.1"/>
	<rect x="297.1" y="563.8" class="st0" width="11.7" height="3.1"/>
	<polygon class="st0" points="304.7,566.7 311.5,577.5 315.5,577.4 308.6,566.4 	"/>
	<path class="st0" d="M307.6,556c0,0,3.7,0.7,3.5,3.8c-0.2,3.1-0.7,4-3.8,4l1.2,3c0,0,5.6,0.1,6.4-4.6c0.8-4.7-1.5-9.5-8-9.3
		C300.4,553.2,307.6,556,307.6,556z"/>
	<rect x="272.9" y="681.4" class="st1" width="475.9" height="7.1"/>
	<rect x="272.9" y="771.7" class="st1" width="475.9" height="7.1"/>
	<path class="st1" d="M431.4,616.5l11.5,8.1l-14.3,39.7l30.6-0.1c0,0,18.7,0.6,26.1-19.2c7.4-19.8-0.8-26.7-16.5-28.5H431.4z"/>
	<polygon class="st1" points="502.3,616.4 545.1,616.6 546.7,664.2 525.4,664.3 525.5,659.3 511.4,659.2 507.9,664.3 487,664.1 
		514.1,624.4 	"/>
	<polygon class="st1" points="625.3,616.4 659.6,616.6 652.7,635.6 670.7,616.6 692.7,616.5 669.7,641.1 675.9,664.1 655.7,664.3 
		650.5,642 642.6,664.1 622.6,664.1 636.8,624.3 	"/>
	<polygon class="st1" points="382.1,706.6 416.5,706.6 410,724.8 421.2,725 427.7,706.6 447.5,706.9 431,754.3 410.6,754.3 
		416.9,736.7 406,736.6 399.9,754 379.4,754.3 393.6,714.5 	"/>
	<path class="st1" d="M484.2,705c0,0,20.2,0.3,21.6,15.3c0,0-5.2,27.6-17.8,31.9c-12.6,4.3-29.6,6.2-38.6-4.7c0,0-4.2-3.6,2-19
		C457.5,713,460.5,707.1,484.2,705z"/>
	<path class="st1" d="M509,706.7l11.7,7.9L506,754l20.6,0.1l5.5-15.9l5.8,16.2l19.3-0.1l-7-16.5c0,0,15.4-1.7,16.7-16.1
		c1.3-14.3-13.9-15.3-13.9-15.3L509,706.7z"/>
	<path class="st1" d="M560.4,616.5l11.7,7.9l-14.6,39.4l20.6,0.1l5.5-15.9l5.8,16.2l19.3-0.1l-7-16.5c0,0,15.4-1.7,16.7-16.1
		c1.3-14.3-13.9-15.3-13.9-15.3L560.4,616.5z"/>
	<path class="st1" d="M609.9,721.5h19.3c0,0,2.8-10.9-11.6-15.7c-14.4-4.8-27.9,1-27.9,1s-15.4,4.9-10.1,18.2c0,0,1.5,5.5,20.5,11.9
		c0,0,7,6-3.7,8.8c-10.7,2.8-4.5-8.2-4.5-8.2l-19.5-0.1c0,0-4.5,14.2,15.7,17.7c20.2,3.4,29.5-6.2,29.5-6.2s12.4-10.6,2.1-19.2
		l-17.2-9.8c0,0-4.5-6,4.6-5.4C614,714.9,609.9,721.5,609.9,721.5z"/>
	<polygon class="st1" points="633.9,706.3 692.3,706.5 688.6,717.9 664,718.1 661.4,724.7 675,724.8 670.6,736.9 657.4,736.8 
		655.5,742.6 679.8,742.9 675.5,754.4 630.7,754.4 645.4,714.4 	"/>
	<path class="st1" d="M366,816.8l19.9,0.1c0,0,6.3-12.1-6-18.4s-29.1-1.2-29.1-1.2s-12.2,3.5-16.9,19.7c-4.7,16.3-6.7,18.4,4,25.6
		c10.7,7.2,28.9,0.8,28.9,0.8s12.5-3.2,16.7-18.9l-20.3,0.1l-2.5,7c0,0-2.3,5.7-8.7,4.4c-6.3-1.3-2.4-6.4-2.4-6.7s8.7-22.4,8.7-22.4
		s2.2-3.9,6.6-2.2s2.5,7.5,2.5,7.5L366,816.8z"/>
	<path class="st1" d="M442.9,831.2c0,0-5.5,14.2-27.9,14.8c-22.4,0.5-24.5-13.1-22.4-19.9c2.1-6.8,6.7-19.1,12-23.7
		c4.4-3.8,14-10.6,35.1-4.5C460.8,803.9,442.9,831.2,442.9,831.2z"/>
	<polygon class="st1" points="455.8,797.6 492.1,797.7 493.2,818.3 507.8,797.4 535.4,797.7 519.2,843.3 501.1,843.4 509.2,821 
		507.8,820.2 492.1,843.4 479.1,843.4 479,821 477.2,820.3 469.1,843.2 450.8,843.2 465.3,803.7 	"/>
	<polygon class="st1" points="541.6,797.1 573.5,797.1 557.2,843.8 537.9,843.8 552,804.2 	"/>
	<path class="st1" d="M609.3,817l19.6,0.1c0,0,7.3-10.4-5.9-18.7c-13.2-8.3-30-0.5-30-0.5s-10.5,3-15.6,18.2
		c-5.1,15.3-6.5,20.3,1.6,25.8c8.1,5.5,25.5,5.7,33.7,0.6c8.1-5.1,10.8-8.3,14-18l-20.3,0.1c0,0-2.2,7.2-4.2,9.2
		c-2,2-2.2,3.3-7.9,2.2c-5.7-1,0.8-12.9,0.8-12.9l6.5-15.1c0,0,1.7-3.6,7-3.1c5.3,0.5,2.6,6,2.6,6L609.3,817z"/>
	<path class="st1" d="M671.8,811.3l19.7,0.1c0,0,2.6-11.6-13.1-15.7c-15.8-4.1-30.6,3.1-30.6,3.1s-9.4,5.1-7.2,12.7
		c2.1,7.6,16.2,12.8,16.2,12.8s11.4,4.4,6.8,8.9s-14.3,3.9-9.3-5.6l-19.8-0.2c0,0-3.8,15.4,17.8,18.1c21.6,2.7,28.9-8,28.9-8
		s11.1-10.5-1.5-19.5l-14.6-7.5c0,0-5.5-5.3,2.2-6.3S671.8,811.3,671.8,811.3z"/>
	<path class="st0" d="M462.6,626.5L452.4,654l2.6,0c0,0,3.9-0.3,9.3-11.6c5.3-11,8.7-13.9,2.5-15.7
		C463.4,625.7,462.6,626.5,462.6,626.5z"/>
	<polygon class="st0" points="514.5,653 527.1,633.1 525.9,652.8 	"/>
	<path class="st0" d="M590.9,628.1l-2.9,7.7l8.8,0.1c0,0,3.1-0.9,3.6-4c0.5-3.1-3.3-3.8-3.3-3.8L590.9,628.1z"/>
	<path class="st0" d="M474.7,719.2c0,0,2.8-5.2,7.1-5c4.3,0.2,5.2,4.5,4.3,6.9c-0.9,2.4-7.6,21.6-7.6,21.6s-2.8,4.3-8.3,4
		c-5.5-0.2-2.6-7.4-2.6-7.4L474.7,719.2z"/>
	<path class="st0" d="M411.4,829.9c0,0-2.1,5.9,3.6,6.2c5.7,0.2,8.3-5.9,8.3-5.9l7.4-21.6c0,0,0.9-2.6-4.3-3.8
		c-5.2-1.2-7.6,4.7-7.6,4.7L411.4,829.9z"/>
	<path class="st0" d="M539.1,718l-2.9,7.7l8.8,0.1c0,0,3.1-0.9,3.6-4c0.5-3.1-3.3-3.8-3.3-3.8L539.1,718z"/>
</g>
</svg>
